# xmcd
#
# Track frame offsets: 
#        150
#        24979
#        52202
#        77155
#        93100
#        107750
#        117709
#        131376
#        146235
#        160413
#
# Disc length: 2440 seconds
#
# Revision: 5
# Processed by: cddbd v1.5.2PL0 Copyright (c) Steve Scherf et al.
# Submitted via: ExactAudioCopy v0.99pb4
#
DISCID=8909860a
DTITLE=Steve Cropper, Pop Staples, Albert King - Jammed Together
DYEAR=1988
DGENRE=R&B/Soul
TTITLE0=What'd I Say
TTITLE1=Tupelo
TTITLE2=Opus De Soul
TTITLE3=Baby, What You Want Me To Do
TTITLE4=Big Bird
TTITLE5=Homer's Theme
TTITLE6=Trashy Dog
TTITLE7=Don't Turn Your Heater Down
TTITLE8=Water
TTITLE9=Knock On Wood
EXTD=© 2001\nLabel: Stax Records (Fantasy Inc.]\nSCD24 8544-2\n24 BIT 
EXTD=Remastered
EXTT0=
EXTT1=
EXTT2=
EXTT3=
EXTT4=
EXTT5=
EXTT6=
EXTT7=
EXTT8=
EXTT9=
PLAYORDER=
